<?xml version="1.0" encoding="utf-8"?>
<!-- Generator: Adobe Illustrator 25.0.0, SVG Export Plug-In . SVG Version: 6.00 Build 0)  -->
<svg version="1.1" id="Ñëîé_1" xmlns="http://www.w3.org/2000/svg" xmlns:xlink="http://www.w3.org/1999/xlink" x="0px" y="0px"
	 viewBox="0 0 600 450" style="enable-background:new 0 0 600 450;" xml:space="preserve">
<style type="text/css">
	.st0{fill:#8686F2;}
	.st1{opacity:0.5;fill:url(#SVGID_1_);}
	.st2{opacity:0.5;fill:url(#SVGID_2_);}
	.st3{opacity:0.5;fill:url(#SVGID_3_);}
	.st4{fill:url(#SVGID_4_);}
	.st5{fill:#BCBEFF;}
	.st6{fill:#FFFFFF;}
	.st7{fill:#0F054C;}
	.st8{opacity:0.5;fill:url(#SVGID_5_);}
	.st9{opacity:0.5;fill:url(#SVGID_6_);}
	.st10{opacity:0.5;fill:url(#SVGID_7_);}
	.st11{opacity:0.5;fill:url(#SVGID_8_);}
	.st12{opacity:0.5;fill:#42E8E0;}
	.st13{opacity:0.5;fill:url(#SVGID_9_);}
	.st14{opacity:0.5;fill:url(#SVGID_10_);}
	.st15{opacity:0.8;fill:#42E8E0;}
	.st16{opacity:0.11;}
	.st17{fill:url(#SVGID_11_);}
	.st18{fill:url(#SVGID_12_);}
	.st19{fill:url(#SVGID_13_);}
	.st20{fill:url(#SVGID_14_);}
	.st21{opacity:0.5;fill:url(#SVGID_15_);}
	.st22{fill:url(#SVGID_16_);}
	.st23{opacity:0.5;}
	.st24{fill:#42E8E0;}
	.st25{fill:url(#SVGID_17_);}
	.st26{fill:url(#SVGID_18_);}
	.st27{fill:url(#SVGID_19_);}
	.st28{fill:url(#SVGID_20_);}
	.st29{fill:url(#SVGID_21_);}
	.st30{opacity:0.5;fill:url(#SVGID_22_);}
	.st31{fill:url(#SVGID_23_);}
	.st32{fill:url(#SVGID_24_);}
	.st33{opacity:0.502;fill:#42E8E0;}
	.st34{opacity:0.7529;fill:#42E8E0;}
	.st35{opacity:0.8784;fill:#42E8E0;}
	.st36{opacity:0.9725;fill:#42E8E0;}
	.st37{fill:url(#SVGID_25_);}
	.st38{fill:url(#SVGID_26_);}
	.st39{fill:url(#SVGID_27_);}
	.st40{fill:url(#SVGID_28_);}
	.st41{opacity:0.11;fill:url(#SVGID_29_);}
	.st42{fill:url(#SVGID_30_);}
	.st43{fill:url(#SVGID_31_);}
	.st44{fill:url(#SVGID_32_);}
	.st45{fill:url(#SVGID_33_);}
	.st46{opacity:0.5;fill:url(#SVGID_34_);}
	.st47{fill:url(#SVGID_35_);}
	.st48{fill:url(#SVGID_36_);}
	.st49{opacity:0.2;fill:#180D5B;}
	.st50{fill:#160A5B;}
	.st51{fill:#24126A;}
	.st52{fill:#453C9E;}
	.st53{fill:url(#SVGID_37_);}
	.st54{fill:url(#SVGID_38_);}
	.st55{fill:#F0F6FF;}
	.st56{fill:#FCD1C5;}
	.st57{fill:#4846A5;}
	.st58{fill:#AA8383;}
	.st59{fill:#C4CCD6;}
	.st60{fill:#E2B1A6;}
	.st61{fill:url(#SVGID_39_);}
	.st62{fill:#936D6D;}
</style>
<g>
	<path class="st0" d="M300.08,282.35c-1.19,0-2.33-0.25-3.19-0.75l-71.82-41.47c-0.93-0.54-1.44-1.3-1.44-2.16
		c0-0.99,0.7-1.96,1.92-2.67l70.86-40.91c2.17-1.25,5.35-1.37,7.25-0.28l71.82,41.47c0.93,0.54,1.44,1.3,1.44,2.16
		c0,0.99-0.7,1.96-1.92,2.67l-70.86,40.91C302.97,282,301.49,282.35,300.08,282.35z M297.44,280.64c1.54,0.89,4.35,0.76,6.14-0.28
		l70.86-40.91c0.85-0.49,1.36-1.13,1.36-1.7c0-0.57-0.48-0.97-0.88-1.2l-71.82-41.47c-1.54-0.88-4.35-0.76-6.14,0.28l-70.86,40.91
		c-0.85,0.49-1.36,1.13-1.36,1.7c0,0.57,0.48,0.97,0.88,1.2L297.44,280.64z"/>
	<linearGradient id="SVGID_1_" gradientUnits="userSpaceOnUse" x1="215.2229" y1="273.4633" x2="261.7064" y2="273.4633">
		<stop  offset="0" style="stop-color:#5761D7"/>
		<stop  offset="0.0726" style="stop-color:#5472D8"/>
		<stop  offset="0.2791" style="stop-color:#4E9CDB"/>
		<stop  offset="0.4801" style="stop-color:#49BDDD"/>
		<stop  offset="0.6715" style="stop-color:#45D5DF"/>
		<stop  offset="0.8493" style="stop-color:#43E3E0"/>
		<stop  offset="1" style="stop-color:#42E8E0"/>
	</linearGradient>
	<path class="st1" d="M215.78,287.12c-0.19,0-0.38-0.1-0.48-0.28c-0.15-0.27-0.06-0.61,0.2-0.76l45.37-26.19
		c0.26-0.15,0.61-0.06,0.76,0.2c0.15,0.27,0.06,0.61-0.2,0.76l-45.37,26.19C215.97,287.09,215.87,287.12,215.78,287.12z"/>
	<linearGradient id="SVGID_2_" gradientUnits="userSpaceOnUse" x1="338.9971" y1="273.3893" x2="385.2245" y2="273.3893">
		<stop  offset="0" style="stop-color:#42E8E0"/>
		<stop  offset="0.1507" style="stop-color:#43E3E0"/>
		<stop  offset="0.3285" style="stop-color:#45D5DF"/>
		<stop  offset="0.5199" style="stop-color:#49BDDD"/>
		<stop  offset="0.7209" style="stop-color:#4E9CDB"/>
		<stop  offset="0.9274" style="stop-color:#5472D8"/>
		<stop  offset="1" style="stop-color:#5761D7"/>
	</linearGradient>
	<path class="st2" d="M384.67,286.97c-0.1,0-0.19-0.02-0.28-0.08l-45.12-26.05c-0.27-0.15-0.36-0.49-0.2-0.76
		c0.15-0.27,0.5-0.36,0.76-0.2l45.12,26.05c0.27,0.15,0.36,0.49,0.2,0.76C385.05,286.87,384.86,286.97,384.67,286.97z"/>
	<linearGradient id="SVGID_3_" gradientUnits="userSpaceOnUse" x1="212.8672" y1="349.6582" x2="387.0174" y2="349.6582">
		<stop  offset="0" style="stop-color:#5761D7"/>
		<stop  offset="0.0726" style="stop-color:#5472D8"/>
		<stop  offset="0.2791" style="stop-color:#4E9CDB"/>
		<stop  offset="0.4801" style="stop-color:#49BDDD"/>
		<stop  offset="0.6715" style="stop-color:#45D5DF"/>
		<stop  offset="0.8493" style="stop-color:#43E3E0"/>
		<stop  offset="1" style="stop-color:#42E8E0"/>
	</linearGradient>
	<path class="st3" d="M300.09,374.46c-1.83,0-3.66-0.47-5.29-1.42c-18.49-10.72-80.08-46.32-81.55-46.98
		c-0.3-0.09-0.44-0.39-0.36-0.68c0.08-0.29,0.41-0.46,0.71-0.37c0.96,0.28,80.95,46.6,81.76,47.07c2.92,1.69,6.55,1.69,9.47,0
		l81.35-47.15c0.26-0.15,0.6-0.07,0.76,0.2c0.15,0.27,0.06,0.61-0.2,0.76l-81.35,47.15C303.75,373.99,301.92,374.46,300.09,374.46z"
		/>
	<g>
		<g>
			<linearGradient id="SVGID_4_" gradientUnits="userSpaceOnUse" x1="186.1007" y1="233.9397" x2="381.581" y2="233.9397">
				<stop  offset="0" style="stop-color:#5761D7"/>
				<stop  offset="0.1645" style="stop-color:#5E67DA"/>
				<stop  offset="0.4051" style="stop-color:#727AE2"/>
				<stop  offset="0.6924" style="stop-color:#9297EE"/>
				<stop  offset="1" style="stop-color:#BCBEFF"/>
			</linearGradient>
			<polygon class="st4" points="376.36,207.52 376.36,216.33 300.09,260.37 223.81,216.33 223.81,207.51 			"/>
			<polygon class="st5" points="300.09,251.55 223.81,207.51 300.09,163.48 376.36,207.52 			"/>
			<polygon class="st6" points="300.09,250.52 224.71,207 223.81,207.51 300.09,251.55 376.36,207.52 375.47,207 			"/>
		</g>
		<g>
			<polygon class="st7" points="300.09,241.39 241.42,207.52 300.09,173.65 358.75,207.52 			"/>
			<g>
				<linearGradient id="SVGID_5_" gradientUnits="userSpaceOnUse" x1="241.4221" y1="207.5248" x2="358.7544" y2="207.5248">
					<stop  offset="0" style="stop-color:#42E8E0"/>
					<stop  offset="0.1507" style="stop-color:#43E3E0"/>
					<stop  offset="0.3285" style="stop-color:#45D5DF"/>
					<stop  offset="0.5199" style="stop-color:#49BDDD"/>
					<stop  offset="0.7209" style="stop-color:#4E9CDB"/>
					<stop  offset="0.9274" style="stop-color:#5472D8"/>
					<stop  offset="1" style="stop-color:#5761D7"/>
				</linearGradient>
				<polygon class="st8" points="300.09,241.4 241.42,207.52 300.09,173.65 358.75,207.53 				"/>
				<g>
					<linearGradient id="SVGID_6_" gradientUnits="userSpaceOnUse" x1="300.0874" y1="186.3188" x2="358.7544" y2="186.3188">
						<stop  offset="0" style="stop-color:#42E8E0"/>
						<stop  offset="0.1507" style="stop-color:#43E3E0"/>
						<stop  offset="0.3285" style="stop-color:#45D5DF"/>
						<stop  offset="0.5199" style="stop-color:#49BDDD"/>
						<stop  offset="0.7209" style="stop-color:#4E9CDB"/>
						<stop  offset="0.9274" style="stop-color:#5472D8"/>
						<stop  offset="1" style="stop-color:#5761D7"/>
					</linearGradient>
					<polygon class="st9" points="300.09,165.11 358.75,198.98 358.75,207.52 300.09,173.65 					"/>
					<linearGradient id="SVGID_7_" gradientUnits="userSpaceOnUse" x1="241.4221" y1="186.3183" x2="300.0891" y2="186.3183">
						<stop  offset="0" style="stop-color:#42E8E0"/>
						<stop  offset="0.1507" style="stop-color:#43E3E0"/>
						<stop  offset="0.3285" style="stop-color:#45D5DF"/>
						<stop  offset="0.5199" style="stop-color:#49BDDD"/>
						<stop  offset="0.7209" style="stop-color:#4E9CDB"/>
						<stop  offset="0.9274" style="stop-color:#5472D8"/>
						<stop  offset="1" style="stop-color:#5761D7"/>
					</linearGradient>
					<polygon class="st10" points="300.09,173.65 241.42,207.52 241.42,198.98 300.09,165.11 					"/>
					<linearGradient id="SVGID_8_" gradientUnits="userSpaceOnUse" x1="241.4221" y1="198.9836" x2="358.7544" y2="198.9836">
						<stop  offset="0" style="stop-color:#42E8E0"/>
						<stop  offset="0.1507" style="stop-color:#43E3E0"/>
						<stop  offset="0.3285" style="stop-color:#45D5DF"/>
						<stop  offset="0.5199" style="stop-color:#49BDDD"/>
						<stop  offset="0.7209" style="stop-color:#4E9CDB"/>
						<stop  offset="0.9274" style="stop-color:#5472D8"/>
						<stop  offset="1" style="stop-color:#5761D7"/>
					</linearGradient>
					<polygon class="st11" points="300.09,232.85 241.42,198.98 300.09,165.11 358.75,198.98 					"/>
					<polygon class="st12" points="300.09,212.52 276.65,198.98 300.09,185.45 323.53,198.98 					"/>
					<polygon class="st12" points="300.09,186.69 322.45,199.61 323.53,198.98 300.09,185.45 276.65,198.98 277.73,199.61 					"/>
					<linearGradient id="SVGID_9_" gradientUnits="userSpaceOnUse" x1="300.0891" y1="220.1897" x2="358.7544" y2="220.1897">
						<stop  offset="0" style="stop-color:#42E8E0"/>
						<stop  offset="0.1507" style="stop-color:#43E3E0"/>
						<stop  offset="0.3285" style="stop-color:#45D5DF"/>
						<stop  offset="0.5199" style="stop-color:#49BDDD"/>
						<stop  offset="0.7209" style="stop-color:#4E9CDB"/>
						<stop  offset="0.9274" style="stop-color:#5472D8"/>
						<stop  offset="1" style="stop-color:#5761D7"/>
					</linearGradient>
					<polygon class="st13" points="300.09,232.85 300.09,241.4 358.75,207.52 358.75,198.98 					"/>
				</g>
				<linearGradient id="SVGID_10_" gradientUnits="userSpaceOnUse" x1="241.4221" y1="220.1891" x2="300.0891" y2="220.1891">
					<stop  offset="0" style="stop-color:#42E8E0"/>
					<stop  offset="0.1507" style="stop-color:#43E3E0"/>
					<stop  offset="0.3285" style="stop-color:#45D5DF"/>
					<stop  offset="0.5199" style="stop-color:#49BDDD"/>
					<stop  offset="0.7209" style="stop-color:#4E9CDB"/>
					<stop  offset="0.9274" style="stop-color:#5472D8"/>
					<stop  offset="1" style="stop-color:#5761D7"/>
				</linearGradient>
				<polygon class="st14" points="241.42,198.98 241.42,207.52 300.09,241.4 300.09,232.85 				"/>
			</g>
			<polygon class="st15" points="300.09,231.92 242.23,198.52 241.42,198.98 300.09,232.85 358.75,198.98 357.95,198.52 			"/>
		</g>
	</g>
	<g>
		<g class="st16">
			<linearGradient id="SVGID_11_" gradientUnits="userSpaceOnUse" x1="117.4702" y1="305.4786" x2="247.0233" y2="305.4786">
				<stop  offset="0" style="stop-color:#5761D7"/>
				<stop  offset="0.0726" style="stop-color:#5472D8"/>
				<stop  offset="0.2791" style="stop-color:#4E9CDB"/>
				<stop  offset="0.4801" style="stop-color:#49BDDD"/>
				<stop  offset="0.6715" style="stop-color:#45D5DF"/>
				<stop  offset="0.8493" style="stop-color:#43E3E0"/>
				<stop  offset="1" style="stop-color:#42E8E0"/>
			</linearGradient>
			<path class="st17" d="M187.25,270.09c-3.07-1.77-6.85-1.77-9.93-0.01l-59.16,34.08c-0.93,0.54-0.93,1.88,0,2.42l59.65,34.44
				c2.71,1.56,6.05,1.56,8.76,0l59.74-34.41c0.93-0.54,0.93-1.88,0-2.42L187.25,270.09z"/>
		</g>
		<g class="st16">
			<linearGradient id="SVGID_12_" gradientUnits="userSpaceOnUse" x1="117.4702" y1="295.5125" x2="247.0233" y2="295.5125">
				<stop  offset="0" style="stop-color:#5761D7"/>
				<stop  offset="0.0726" style="stop-color:#5472D8"/>
				<stop  offset="0.2791" style="stop-color:#4E9CDB"/>
				<stop  offset="0.4801" style="stop-color:#49BDDD"/>
				<stop  offset="0.6715" style="stop-color:#45D5DF"/>
				<stop  offset="0.8493" style="stop-color:#43E3E0"/>
				<stop  offset="1" style="stop-color:#42E8E0"/>
			</linearGradient>
			<path class="st18" d="M187.25,260.13c-3.07-1.77-6.85-1.77-9.93,0l-59.16,34.08c-0.93,0.54-0.93,1.88,0,2.42l59.65,34.44
				c2.71,1.56,6.05,1.56,8.76,0l59.74-34.41c0.93-0.54,0.93-1.88,0-2.42L187.25,260.13z"/>
		</g>
		<g class="st16">
			<linearGradient id="SVGID_13_" gradientUnits="userSpaceOnUse" x1="117.4702" y1="285.5465" x2="247.0233" y2="285.5465">
				<stop  offset="0" style="stop-color:#5761D7"/>
				<stop  offset="0.0726" style="stop-color:#5472D8"/>
				<stop  offset="0.2791" style="stop-color:#4E9CDB"/>
				<stop  offset="0.4801" style="stop-color:#49BDDD"/>
				<stop  offset="0.6715" style="stop-color:#45D5DF"/>
				<stop  offset="0.8493" style="stop-color:#43E3E0"/>
				<stop  offset="1" style="stop-color:#42E8E0"/>
			</linearGradient>
			<path class="st19" d="M187.25,250.16c-3.07-1.77-6.85-1.77-9.93-0.01l-59.16,34.08c-0.93,0.54-0.93,1.88,0,2.42l59.65,34.44
				c2.71,1.56,6.05,1.56,8.76,0l59.74-34.41c0.93-0.54,0.93-1.88,0-2.42L187.25,250.16z"/>
		</g>
		<g class="st16">
			<linearGradient id="SVGID_14_" gradientUnits="userSpaceOnUse" x1="117.4702" y1="275.5804" x2="247.0233" y2="275.5804">
				<stop  offset="0" style="stop-color:#5761D7"/>
				<stop  offset="0.0726" style="stop-color:#5472D8"/>
				<stop  offset="0.2791" style="stop-color:#4E9CDB"/>
				<stop  offset="0.4801" style="stop-color:#49BDDD"/>
				<stop  offset="0.6715" style="stop-color:#45D5DF"/>
				<stop  offset="0.8493" style="stop-color:#43E3E0"/>
				<stop  offset="1" style="stop-color:#42E8E0"/>
			</linearGradient>
			<path class="st20" d="M187.25,240.19c-3.07-1.77-6.85-1.77-9.93-0.01l-59.16,34.08c-0.93,0.54-0.93,1.88,0,2.42l59.65,34.44
				c2.71,1.56,6.05,1.56,8.76,0l59.74-34.41c0.93-0.54,0.93-1.88,0-2.42L187.25,240.19z"/>
		</g>
		<linearGradient id="SVGID_15_" gradientUnits="userSpaceOnUse" x1="117.4702" y1="285.5992" x2="247.0232" y2="285.5992">
			<stop  offset="0" style="stop-color:#5761D7"/>
			<stop  offset="0.0726" style="stop-color:#5472D8"/>
			<stop  offset="0.2791" style="stop-color:#4E9CDB"/>
			<stop  offset="0.4801" style="stop-color:#49BDDD"/>
			<stop  offset="0.6715" style="stop-color:#45D5DF"/>
			<stop  offset="0.8493" style="stop-color:#43E3E0"/>
			<stop  offset="1" style="stop-color:#42E8E0"/>
		</linearGradient>
		<path class="st21" d="M246.32,274.3l-59.07-34.1c-3.07-1.77-6.85-1.77-9.93-0.01l-59.16,34.08c-0.47,0.27-0.7,0.74-0.7,1.21v20.04
			c0,0.47,0.23,0.94,0.7,1.21l59.65,34.44c2.71,1.56,6.05,1.56,8.76,0l59.74-34.41c0.47-0.27,0.7-0.74,0.7-1.21v-20.04l0,0
			C247.02,275.04,246.79,274.57,246.32,274.3z"/>
		<g class="st16">
			<linearGradient id="SVGID_16_" gradientUnits="userSpaceOnUse" x1="117.4702" y1="275.5804" x2="247.0233" y2="275.5804">
				<stop  offset="0" style="stop-color:#5761D7"/>
				<stop  offset="0.0726" style="stop-color:#5472D8"/>
				<stop  offset="0.2791" style="stop-color:#4E9CDB"/>
				<stop  offset="0.4801" style="stop-color:#49BDDD"/>
				<stop  offset="0.6715" style="stop-color:#45D5DF"/>
				<stop  offset="0.8493" style="stop-color:#43E3E0"/>
				<stop  offset="1" style="stop-color:#42E8E0"/>
			</linearGradient>
			<path class="st22" d="M187.25,240.19c-3.07-1.77-6.85-1.77-9.93-0.01l-59.16,34.08c-0.93,0.54-0.93,1.88,0,2.42l59.65,34.44
				c2.71,1.56,6.05,1.56,8.76,0l59.74-34.41c0.93-0.54,0.93-1.88,0-2.42L187.25,240.19z"/>
		</g>
		<g class="st23">
			<path class="st24" d="M184.37,259.73c-1.3-0.75-2.91-0.75-4.21,0l-26.51,15.27c-0.42,0.24-0.42,0.84,0,1.08l26.62,15.37
				c1.21,0.7,2.7,0.7,3.91,0l26.66-15.35c0.42-0.24,0.42-0.84,0-1.08L184.37,259.73z"/>
		</g>
		<path class="st24" d="M153.66,275.95l26.51-15.27c1.3-0.75,2.91-0.75,4.21,0l26.47,15.28c0.03,0.02,0.04,0.04,0.06,0.06
			c0.34-0.27,0.33-0.79-0.06-1.02l-26.47-15.28c-1.3-0.75-2.91-0.75-4.21,0l-26.51,15.27c-0.39,0.22-0.4,0.75-0.06,1.02
			C153.62,275.99,153.63,275.97,153.66,275.95z"/>
		<linearGradient id="SVGID_17_" gradientUnits="userSpaceOnUse" x1="117.471" y1="293.5427" x2="247.0224" y2="293.5427">
			<stop  offset="0" style="stop-color:#5761D7"/>
			<stop  offset="0.0726" style="stop-color:#5472D8"/>
			<stop  offset="0.2791" style="stop-color:#4E9CDB"/>
			<stop  offset="0.4801" style="stop-color:#49BDDD"/>
			<stop  offset="0.6715" style="stop-color:#45D5DF"/>
			<stop  offset="0.8493" style="stop-color:#43E3E0"/>
			<stop  offset="1" style="stop-color:#42E8E0"/>
		</linearGradient>
		<path class="st25" d="M246.32,275.34l-59.74,34.41c-2.71,1.56-6.05,1.56-8.76,0l-59.65-34.44c-0.23-0.13-0.4-0.32-0.52-0.52
			c-0.36,0.63-0.18,1.49,0.52,1.9l59.65,34.44c2.71,1.56,6.05,1.56,8.76,0l59.74-34.41c0.7-0.41,0.87-1.27,0.52-1.9
			C246.73,275.03,246.55,275.21,246.32,275.34z"/>
	</g>
	<g>
		<g class="st16">
			<linearGradient id="SVGID_18_" gradientUnits="userSpaceOnUse" x1="353.1531" y1="305.4786" x2="482.7062" y2="305.4786">
				<stop  offset="0" style="stop-color:#5761D7"/>
				<stop  offset="0.0726" style="stop-color:#5472D8"/>
				<stop  offset="0.2791" style="stop-color:#4E9CDB"/>
				<stop  offset="0.4801" style="stop-color:#49BDDD"/>
				<stop  offset="0.6715" style="stop-color:#45D5DF"/>
				<stop  offset="0.8493" style="stop-color:#43E3E0"/>
				<stop  offset="1" style="stop-color:#42E8E0"/>
			</linearGradient>
			<path class="st26" d="M422.94,270.09c-3.07-1.77-6.85-1.77-9.93-0.01l-59.16,34.08c-0.93,0.54-0.93,1.88,0,2.42l59.65,34.44
				c2.71,1.56,6.05,1.56,8.76,0l59.74-34.41c0.93-0.54,0.93-1.88,0-2.42L422.94,270.09z"/>
		</g>
		<g class="st16">
			<linearGradient id="SVGID_19_" gradientUnits="userSpaceOnUse" x1="353.1531" y1="295.5125" x2="482.7062" y2="295.5125">
				<stop  offset="0" style="stop-color:#5761D7"/>
				<stop  offset="0.0726" style="stop-color:#5472D8"/>
				<stop  offset="0.2791" style="stop-color:#4E9CDB"/>
				<stop  offset="0.4801" style="stop-color:#49BDDD"/>
				<stop  offset="0.6715" style="stop-color:#45D5DF"/>
				<stop  offset="0.8493" style="stop-color:#43E3E0"/>
				<stop  offset="1" style="stop-color:#42E8E0"/>
			</linearGradient>
			<path class="st27" d="M422.94,260.13c-3.07-1.77-6.85-1.77-9.93,0l-59.16,34.08c-0.93,0.54-0.93,1.88,0,2.42l59.65,34.44
				c2.71,1.56,6.05,1.56,8.76,0l59.74-34.41c0.93-0.54,0.93-1.88,0-2.42L422.94,260.13z"/>
		</g>
		<g class="st16">
			<linearGradient id="SVGID_20_" gradientUnits="userSpaceOnUse" x1="353.1531" y1="285.5465" x2="482.7062" y2="285.5465">
				<stop  offset="0" style="stop-color:#5761D7"/>
				<stop  offset="0.0726" style="stop-color:#5472D8"/>
				<stop  offset="0.2791" style="stop-color:#4E9CDB"/>
				<stop  offset="0.4801" style="stop-color:#49BDDD"/>
				<stop  offset="0.6715" style="stop-color:#45D5DF"/>
				<stop  offset="0.8493" style="stop-color:#43E3E0"/>
				<stop  offset="1" style="stop-color:#42E8E0"/>
			</linearGradient>
			<path class="st28" d="M422.94,250.16c-3.07-1.77-6.85-1.77-9.93-0.01l-59.16,34.08c-0.93,0.54-0.93,1.88,0,2.42l59.65,34.44
				c2.71,1.56,6.05,1.56,8.76,0l59.74-34.41c0.93-0.54,0.93-1.88,0-2.42L422.94,250.16z"/>
		</g>
		<g class="st16">
			<linearGradient id="SVGID_21_" gradientUnits="userSpaceOnUse" x1="353.1531" y1="275.5804" x2="482.7062" y2="275.5804">
				<stop  offset="0" style="stop-color:#5761D7"/>
				<stop  offset="0.0726" style="stop-color:#5472D8"/>
				<stop  offset="0.2791" style="stop-color:#4E9CDB"/>
				<stop  offset="0.4801" style="stop-color:#49BDDD"/>
				<stop  offset="0.6715" style="stop-color:#45D5DF"/>
				<stop  offset="0.8493" style="stop-color:#43E3E0"/>
				<stop  offset="1" style="stop-color:#42E8E0"/>
			</linearGradient>
			<path class="st29" d="M422.94,240.19c-3.07-1.77-6.85-1.77-9.93-0.01l-59.16,34.08c-0.93,0.54-0.93,1.88,0,2.42l59.65,34.44
				c2.71,1.56,6.05,1.56,8.76,0l59.74-34.41c0.93-0.54,0.93-1.88,0-2.42L422.94,240.19z"/>
		</g>
		<linearGradient id="SVGID_22_" gradientUnits="userSpaceOnUse" x1="353.1531" y1="285.5992" x2="482.7062" y2="285.5992">
			<stop  offset="0" style="stop-color:#5761D7"/>
			<stop  offset="0.0726" style="stop-color:#5472D8"/>
			<stop  offset="0.2791" style="stop-color:#4E9CDB"/>
			<stop  offset="0.4801" style="stop-color:#49BDDD"/>
			<stop  offset="0.6715" style="stop-color:#45D5DF"/>
			<stop  offset="0.8493" style="stop-color:#43E3E0"/>
			<stop  offset="1" style="stop-color:#42E8E0"/>
		</linearGradient>
		<path class="st30" d="M482.01,274.3l-59.07-34.1c-3.07-1.77-6.85-1.77-9.93-0.01l-59.16,34.08c-0.47,0.27-0.7,0.74-0.7,1.21v20.04
			c0,0.47,0.23,0.94,0.7,1.21l59.65,34.44c2.71,1.56,6.05,1.56,8.76,0l59.74-34.41c0.47-0.27,0.7-0.74,0.7-1.21v-20.04l0,0
			C482.71,275.04,482.47,274.57,482.01,274.3z"/>
		<g class="st16">
			<linearGradient id="SVGID_23_" gradientUnits="userSpaceOnUse" x1="353.1531" y1="275.5804" x2="482.7062" y2="275.5804">
				<stop  offset="0" style="stop-color:#5761D7"/>
				<stop  offset="0.0726" style="stop-color:#5472D8"/>
				<stop  offset="0.2791" style="stop-color:#4E9CDB"/>
				<stop  offset="0.4801" style="stop-color:#49BDDD"/>
				<stop  offset="0.6715" style="stop-color:#45D5DF"/>
				<stop  offset="0.8493" style="stop-color:#43E3E0"/>
				<stop  offset="1" style="stop-color:#42E8E0"/>
			</linearGradient>
			<path class="st31" d="M422.94,240.19c-3.07-1.77-6.85-1.77-9.93-0.01l-59.16,34.08c-0.93,0.54-0.93,1.88,0,2.42l59.65,34.44
				c2.71,1.56,6.05,1.56,8.76,0l59.74-34.41c0.93-0.54,0.93-1.88,0-2.42L422.94,240.19z"/>
		</g>
		<g class="st23">
			<path class="st24" d="M420.05,259.73c-1.3-0.75-2.91-0.75-4.21,0l-26.51,15.27c-0.42,0.24-0.42,0.84,0,1.08l26.62,15.37
				c1.21,0.7,2.7,0.7,3.91,0l26.66-15.35c0.42-0.24,0.42-0.84,0-1.08L420.05,259.73z"/>
		</g>
		<path class="st24" d="M389.34,275.95l26.51-15.27c1.3-0.75,2.91-0.75,4.21,0l26.47,15.28c0.03,0.02,0.04,0.04,0.06,0.06
			c0.34-0.27,0.33-0.79-0.06-1.02l-26.47-15.28c-1.3-0.75-2.91-0.75-4.21,0l-26.51,15.27c-0.39,0.22-0.4,0.75-0.06,1.02
			C389.3,275.99,389.31,275.97,389.34,275.95z"/>
		<linearGradient id="SVGID_24_" gradientUnits="userSpaceOnUse" x1="353.154" y1="293.5427" x2="482.7054" y2="293.5427">
			<stop  offset="0" style="stop-color:#5761D7"/>
			<stop  offset="0.0726" style="stop-color:#5472D8"/>
			<stop  offset="0.2791" style="stop-color:#4E9CDB"/>
			<stop  offset="0.4801" style="stop-color:#49BDDD"/>
			<stop  offset="0.6715" style="stop-color:#45D5DF"/>
			<stop  offset="0.8493" style="stop-color:#43E3E0"/>
			<stop  offset="1" style="stop-color:#42E8E0"/>
		</linearGradient>
		<path class="st32" d="M482.01,275.34l-59.74,34.41c-2.71,1.56-6.05,1.56-8.76,0l-59.65-34.44c-0.23-0.13-0.4-0.32-0.52-0.52
			c-0.36,0.63-0.18,1.49,0.52,1.9l59.65,34.44c2.71,1.56,6.05,1.56,8.76,0l59.74-34.41c0.7-0.41,0.87-1.27,0.52-1.9
			C482.41,275.03,482.24,275.21,482.01,275.34z"/>
	</g>
	<g>
		<path class="st33" d="M466.66,191.98v-35.43c-0.82-12.08-5.6-23.59-13.62-34.11v35.43C461.06,168.4,465.84,179.91,466.66,191.98
			L466.66,191.98z M448.94,152.9v-35.43c-2.83-3.19-5.96-6.27-9.38-9.24v35.43C442.98,146.62,446.11,149.71,448.94,152.9
			L448.94,152.9z M433.75,138.93V103.5c-3.72-2.84-7.71-5.56-11.96-8.14v35.43C426.04,133.38,430.03,136.09,433.75,138.93
			L433.75,138.93z M413.77,136.7V80.33c32.64,17.32,53.02,42.09,53.02,69.49v56.38C466.79,178.79,446.41,154.02,413.77,136.7
			L413.77,136.7z"/>
		<path class="st33" d="M354.07,109.64V99.46c-2.49-0.48-5.01-0.92-7.55-1.33v10.18C349.06,108.72,351.58,109.16,354.07,109.64
			L354.07,109.64z M340.49,97.23v-9.01c-2.58-0.36-5.19-0.68-7.81-0.96v9.01C335.3,96.55,337.91,96.87,340.49,97.23L340.49,97.23z
			 M367.14,102.32V90.04c-2.39-0.59-4.81-1.15-7.26-1.68v12.28C362.33,101.17,364.75,101.73,367.14,102.32L367.14,102.32z
			 M326.44,95.66V77.52c-2.66-0.23-5.34-0.42-8.04-0.58v18.13C321.1,95.23,323.78,95.43,326.44,95.66L326.44,95.66z M297.26,94.63
			V76.5c-2.73,0.04-5.45,0.12-8.15,0.24v18.13C291.81,94.76,294.53,94.68,297.26,94.63L297.26,94.63z M282.77,95.22V72.41
			c-2.67,0.18-5.32,0.39-7.96,0.64v22.81C277.45,95.61,280.1,95.39,282.77,95.22L282.77,95.22z M311.99,94.78V68.69
			c-2.44-0.09-4.9-0.14-7.37-0.17c-0.29,0-0.58-0.01-0.88-0.01v26.09c0.29,0,0.58,0,0.88,0.01
			C307.09,94.64,309.55,94.7,311.99,94.78L311.99,94.78z M268.64,96.5V63.87c-2.6,0.3-5.18,0.64-7.74,1.02v32.64
			C263.46,97.15,266.04,96.81,268.64,96.5L268.64,96.5z M244.29,61.08c18.76-4,39.12-6.09,60.34-5.88
			c28.33,0.28,54.87,4.65,77.95,12.09v56.38c-23.08-7.45-49.62-11.81-77.95-12.09c-21.22-0.21-41.58,1.88-60.34,5.88V61.08
			L244.29,61.08z"/>
		<path class="st33" d="M148.37,137.54v-11.35c-3.37,4.85-6.07,9.91-8.01,15.12v33.62c1.95-5.22,4.64-10.27,8.01-15.12v-11.35
			c0.98-1.41,2.01-2.8,3.1-4.17v6.12c2.07-2.6,4.33-5.14,6.78-7.61v-6.12c10.63-10.7,24.8-20.09,41.57-27.65V98.12
			c-2.98,1.35-5.88,2.75-8.7,4.21c-1.41,0.73-2.79,1.47-4.16,2.23c-10.77,5.98-20.12,12.79-27.75,20.26
			c-0.32,0.32-0.64,0.63-0.96,0.95v-6.12c-2.45,2.47-4.72,5-6.78,7.61v6.12C150.38,134.75,149.35,136.14,148.37,137.54
			L148.37,137.54z M138.16,137.19c6.41-27.51,33.36-51.2,71.59-65.95v56.38c-38.23,14.75-65.18,38.44-71.59,65.95V137.19
			L138.16,137.19z"/>
		<path class="st34" d="M158.25,125.77c0.32-0.32,0.64-0.64,0.96-0.95v10.92c5.7-5.58,12.36-10.79,19.85-15.57
			c2.54-1.62,5.17-3.18,7.9-4.69v-10.92c1.36-0.76,2.75-1.5,4.16-2.23v10.92c2.81-1.46,5.71-2.86,8.7-4.21V98.12v10.92
			c-16.77,7.56-30.93,16.95-41.57,27.65V125.77L158.25,125.77z M148.37,137.54c0.98-1.41,2.01-2.8,3.1-4.17v10.92
			c-1.09,1.37-2.12,2.76-3.1,4.17V137.54L148.37,137.54z"/>
		<path class="st35" d="M191.12,102.33c2.81-1.46,5.71-2.86,8.7-4.21v10.92c-2.98,1.35-5.88,2.75-8.7,4.21V102.33L191.12,102.33z"/>
		<path class="st35" d="M159.21,124.82c5.7-5.58,12.36-10.79,19.85-15.57v10.92c-7.49,4.77-14.16,9.99-19.85,15.57V124.82
			L159.21,124.82z"/>
		<path class="st36" d="M179.06,109.25c2.54-1.62,5.17-3.18,7.9-4.69v10.92c-2.72,1.51-5.36,3.08-7.9,4.69V109.25L179.06,109.25z"/>
		<path class="st34" d="M140.36,141.32c1.95-5.22,4.64-10.27,8.01-15.12v11.35c-3.37,4.85-6.07,9.91-8.01,15.12v10.92
			c1.95-5.22,4.64-10.27,8.01-15.12v11.35c-3.37,4.85-6.07,9.91-8.01,15.12V141.32L140.36,141.32z"/>
		<path class="st35" d="M140.36,152.67c1.95-5.22,4.64-10.27,8.01-15.12v10.92c-3.37,4.85-6.07,9.91-8.01,15.12V152.67
			L140.36,152.67z"/>
		<path class="st34" d="M151.47,144.29c2.07-2.6,4.33-5.14,6.78-7.61v6.12c-2.45,2.47-4.72,5-6.78,7.61V144.29L151.47,144.29z
			 M151.47,127.26c2.07-2.6,4.33-5.14,6.78-7.61v6.12c-2.45,2.47-4.72,5-6.78,7.61V127.26L151.47,127.26z"/>
		<path class="st35" d="M151.47,133.38c2.07-2.6,4.33-5.14,6.78-7.61v10.92c-2.45,2.47-4.72,5-6.78,7.61V133.38L151.47,133.38z"/>
		<path class="st34" d="M453.04,122.44c8.02,10.52,12.8,22.03,13.62,34.11v35.43c-0.82-12.08-5.6-23.59-13.62-34.11V122.44
			L453.04,122.44z"/>
		<path class="st24" d="M439.56,108.22c3.42,2.97,6.55,6.05,9.38,9.24v35.43c-2.83-3.19-5.96-6.27-9.38-9.24V108.22L439.56,108.22z"
			/>
		<path class="st34" d="M421.8,95.36c4.24,2.58,8.24,5.3,11.96,8.14v35.43c-3.72-2.84-7.71-5.56-11.96-8.14V95.36L421.8,95.36z"/>
		<path class="st34" d="M359.89,88.36c2.45,0.53,4.87,1.09,7.26,1.68v12.28c-2.39-0.59-4.81-1.15-7.26-1.68V88.36L359.89,88.36z"/>
		<path class="st34" d="M346.52,98.13c2.54,0.41,5.06,0.85,7.55,1.33v10.18c-2.49-0.48-5.01-0.92-7.55-1.33V98.13L346.52,98.13z"/>
		<path class="st34" d="M332.67,87.25c2.63,0.29,5.23,0.61,7.81,0.96v9.01c-2.58-0.36-5.19-0.68-7.81-0.96V87.25L332.67,87.25z"/>
		<path class="st34" d="M318.4,76.95c2.7,0.16,5.38,0.35,8.04,0.58v18.13c-2.66-0.23-5.34-0.42-8.04-0.58V76.95L318.4,76.95z"/>
		<path class="st34" d="M303.75,68.52c0.29,0,0.58,0,0.88,0.01c2.47,0.02,4.93,0.08,7.37,0.17v26.09c-2.44-0.09-4.9-0.14-7.37-0.17
			c-0.29,0-0.58-0.01-0.88-0.01V68.52L303.75,68.52z"/>
		<path class="st24" d="M289.11,76.74c2.7-0.12,5.42-0.2,8.15-0.24v18.13c-2.73,0.04-5.45,0.12-8.15,0.24V76.74L289.11,76.74z"/>
		<path class="st34" d="M274.81,73.05c2.63-0.25,5.29-0.46,7.96-0.64v22.81c-2.67,0.18-5.32,0.39-7.96,0.64V73.05L274.81,73.05z"/>
		<path class="st24" d="M260.9,64.89c2.56-0.37,5.14-0.71,7.74-1.02V96.5c-2.6,0.3-5.18,0.64-7.74,1.02V64.89L260.9,64.89z"/>
	</g>
	<g>
		<g>
			<g>
				<g class="st16">
					
						<linearGradient id="SVGID_25_" gradientUnits="userSpaceOnUse" x1="158.9347" y1="376.6276" x2="280.7362" y2="376.6276" gradientTransform="matrix(-1 0 0 1 519.6742 0)">
						<stop  offset="0" style="stop-color:#5761D7"/>
						<stop  offset="0.0726" style="stop-color:#5472D8"/>
						<stop  offset="0.2791" style="stop-color:#4E9CDB"/>
						<stop  offset="0.4801" style="stop-color:#49BDDD"/>
						<stop  offset="0.6715" style="stop-color:#45D5DF"/>
						<stop  offset="0.8493" style="stop-color:#43E3E0"/>
						<stop  offset="1" style="stop-color:#42E8E0"/>
					</linearGradient>
					<path class="st37" d="M295.13,343.36c2.89-1.67,6.44-1.67,9.33,0l55.62,32.04c0.88,0.51,0.88,1.77,0,2.27L304,410.05
						c-2.55,1.47-5.69,1.47-8.24,0l-56.17-32.35c-0.88-0.51-0.88-1.77,0-2.27L295.13,343.36z"/>
				</g>
				<g class="st16">
					
						<linearGradient id="SVGID_26_" gradientUnits="userSpaceOnUse" x1="158.9347" y1="367.2579" x2="280.7362" y2="367.2579" gradientTransform="matrix(-1 0 0 1 519.6742 0)">
						<stop  offset="0" style="stop-color:#5761D7"/>
						<stop  offset="0.0726" style="stop-color:#5472D8"/>
						<stop  offset="0.2791" style="stop-color:#4E9CDB"/>
						<stop  offset="0.4801" style="stop-color:#49BDDD"/>
						<stop  offset="0.6715" style="stop-color:#45D5DF"/>
						<stop  offset="0.8493" style="stop-color:#43E3E0"/>
						<stop  offset="1" style="stop-color:#42E8E0"/>
					</linearGradient>
					<path class="st38" d="M295.13,333.99c2.89-1.67,6.44-1.67,9.33,0l55.62,32.04c0.88,0.51,0.88,1.77,0,2.27L304,400.68
						c-2.55,1.47-5.69,1.47-8.24,0l-56.17-32.35c-0.88-0.51-0.88-1.77,0-2.27L295.13,333.99z"/>
				</g>
				<g class="st16">
					
						<linearGradient id="SVGID_27_" gradientUnits="userSpaceOnUse" x1="158.9347" y1="357.8881" x2="280.7362" y2="357.8881" gradientTransform="matrix(-1 0 0 1 519.6742 0)">
						<stop  offset="0" style="stop-color:#5761D7"/>
						<stop  offset="0.0726" style="stop-color:#5472D8"/>
						<stop  offset="0.2791" style="stop-color:#4E9CDB"/>
						<stop  offset="0.4801" style="stop-color:#49BDDD"/>
						<stop  offset="0.6715" style="stop-color:#45D5DF"/>
						<stop  offset="0.8493" style="stop-color:#43E3E0"/>
						<stop  offset="1" style="stop-color:#42E8E0"/>
					</linearGradient>
					<path class="st39" d="M295.13,324.62c2.89-1.67,6.44-1.67,9.33,0l55.62,32.04c0.88,0.51,0.88,1.77,0,2.27L304,391.31
						c-2.55,1.47-5.69,1.47-8.24,0l-56.17-32.35c-0.88-0.51-0.88-1.77,0-2.27L295.13,324.62z"/>
				</g>
				<g class="st16">
					
						<linearGradient id="SVGID_28_" gradientUnits="userSpaceOnUse" x1="158.9347" y1="348.5183" x2="280.7362" y2="348.5183" gradientTransform="matrix(-1 0 0 1 519.6742 0)">
						<stop  offset="0" style="stop-color:#5761D7"/>
						<stop  offset="0.0726" style="stop-color:#5472D8"/>
						<stop  offset="0.2791" style="stop-color:#4E9CDB"/>
						<stop  offset="0.4801" style="stop-color:#49BDDD"/>
						<stop  offset="0.6715" style="stop-color:#45D5DF"/>
						<stop  offset="0.8493" style="stop-color:#43E3E0"/>
						<stop  offset="1" style="stop-color:#42E8E0"/>
					</linearGradient>
					<path class="st40" d="M295.13,315.25c2.89-1.67,6.44-1.67,9.33,0l55.62,32.04c0.88,0.51,0.88,1.77,0,2.27L304,381.94
						c-2.55,1.47-5.69,1.47-8.24,0l-56.17-32.35c-0.88-0.51-0.88-1.77,0-2.27L295.13,315.25z"/>
				</g>
				
					<linearGradient id="SVGID_29_" gradientUnits="userSpaceOnUse" x1="158.9347" y1="362.5729" x2="280.7362" y2="362.5729" gradientTransform="matrix(-1 0 0 1 519.6742 0)">
					<stop  offset="0" style="stop-color:#5761D7"/>
					<stop  offset="0.0726" style="stop-color:#5472D8"/>
					<stop  offset="0.2791" style="stop-color:#4E9CDB"/>
					<stop  offset="0.4801" style="stop-color:#49BDDD"/>
					<stop  offset="0.6715" style="stop-color:#45D5DF"/>
					<stop  offset="0.8493" style="stop-color:#43E3E0"/>
					<stop  offset="1" style="stop-color:#42E8E0"/>
				</linearGradient>
				<path class="st41" d="M239.59,347.31l55.54-32.06c2.89-1.67,6.44-1.67,9.33,0l55.62,32.04c0.44,0.25,0.66,0.7,0.66,1.14v28.11
					c0,0.44-0.22,0.88-0.66,1.14L304,410.05c-2.55,1.47-5.69,1.47-8.24,0l-56.17-32.35c-0.44-0.25-0.66-0.7-0.66-1.14v-28.11l0,0
					C238.94,348.01,239.16,347.57,239.59,347.31z"/>
			</g>
			<g>
				<g class="st16">
					
						<linearGradient id="SVGID_30_" gradientUnits="userSpaceOnUse" x1="145.9899" y1="332.6149" x2="293.681" y2="332.6149" gradientTransform="matrix(-1 0 0 1 519.6742 0)">
						<stop  offset="0" style="stop-color:#5761D7"/>
						<stop  offset="0.0726" style="stop-color:#5472D8"/>
						<stop  offset="0.2791" style="stop-color:#4E9CDB"/>
						<stop  offset="0.4801" style="stop-color:#49BDDD"/>
						<stop  offset="0.6715" style="stop-color:#45D5DF"/>
						<stop  offset="0.8493" style="stop-color:#43E3E0"/>
						<stop  offset="1" style="stop-color:#42E8E0"/>
					</linearGradient>
					<path class="st42" d="M294.13,292.27c3.5-2.02,7.81-2.02,11.32-0.01l67.44,38.85c1.06,0.61,1.06,2.15,0,2.76l-68,39.26
						c-3.09,1.78-6.9,1.78-9.99,0l-68.11-39.23c-1.06-0.61-1.06-2.15,0-2.76L294.13,292.27z"/>
				</g>
				<g class="st16">
					
						<linearGradient id="SVGID_31_" gradientUnits="userSpaceOnUse" x1="145.9899" y1="321.2535" x2="293.681" y2="321.2535" gradientTransform="matrix(-1 0 0 1 519.6742 0)">
						<stop  offset="0" style="stop-color:#5761D7"/>
						<stop  offset="0.0726" style="stop-color:#5472D8"/>
						<stop  offset="0.2791" style="stop-color:#4E9CDB"/>
						<stop  offset="0.4801" style="stop-color:#49BDDD"/>
						<stop  offset="0.6715" style="stop-color:#45D5DF"/>
						<stop  offset="0.8493" style="stop-color:#43E3E0"/>
						<stop  offset="1" style="stop-color:#42E8E0"/>
					</linearGradient>
					<path class="st43" d="M294.13,280.91c3.5-2.02,7.81-2.02,11.32-0.01l67.44,38.85c1.06,0.61,1.06,2.15,0,2.76l-68,39.26
						c-3.09,1.78-6.9,1.78-9.99,0l-68.11-39.23c-1.06-0.61-1.06-2.15,0-2.76L294.13,280.91z"/>
				</g>
				<g class="st16">
					
						<linearGradient id="SVGID_32_" gradientUnits="userSpaceOnUse" x1="145.9899" y1="309.8921" x2="293.681" y2="309.8921" gradientTransform="matrix(-1 0 0 1 519.6742 0)">
						<stop  offset="0" style="stop-color:#5761D7"/>
						<stop  offset="0.0726" style="stop-color:#5472D8"/>
						<stop  offset="0.2791" style="stop-color:#4E9CDB"/>
						<stop  offset="0.4801" style="stop-color:#49BDDD"/>
						<stop  offset="0.6715" style="stop-color:#45D5DF"/>
						<stop  offset="0.8493" style="stop-color:#43E3E0"/>
						<stop  offset="1" style="stop-color:#42E8E0"/>
					</linearGradient>
					<path class="st44" d="M294.13,269.55c3.5-2.02,7.81-2.02,11.32-0.01l67.44,38.85c1.06,0.61,1.06,2.15,0,2.76l-68,39.26
						c-3.09,1.78-6.9,1.78-9.99,0l-68.11-39.23c-1.06-0.61-1.06-2.15,0-2.76L294.13,269.55z"/>
				</g>
				<g class="st16">
					
						<linearGradient id="SVGID_33_" gradientUnits="userSpaceOnUse" x1="145.9899" y1="298.5308" x2="293.681" y2="298.5308" gradientTransform="matrix(-1 0 0 1 519.6742 0)">
						<stop  offset="0" style="stop-color:#5761D7"/>
						<stop  offset="0.0726" style="stop-color:#5472D8"/>
						<stop  offset="0.2791" style="stop-color:#4E9CDB"/>
						<stop  offset="0.4801" style="stop-color:#49BDDD"/>
						<stop  offset="0.6715" style="stop-color:#45D5DF"/>
						<stop  offset="0.8493" style="stop-color:#43E3E0"/>
						<stop  offset="1" style="stop-color:#42E8E0"/>
					</linearGradient>
					<path class="st45" d="M294.13,258.19c3.5-2.02,7.81-2.02,11.32-0.01l67.44,38.85c1.06,0.61,1.06,2.15,0,2.76l-68,39.26
						c-3.09,1.78-6.9,1.78-9.99,0l-68.11-39.23c-1.06-0.61-1.06-2.15,0-2.76L294.13,258.19z"/>
				</g>
				
					<linearGradient id="SVGID_34_" gradientUnits="userSpaceOnUse" x1="145.9899" y1="315.5728" x2="293.681" y2="315.5728" gradientTransform="matrix(-1 0 0 1 519.6742 0)">
					<stop  offset="0" style="stop-color:#5761D7"/>
					<stop  offset="0.0726" style="stop-color:#5472D8"/>
					<stop  offset="0.2791" style="stop-color:#4E9CDB"/>
					<stop  offset="0.4801" style="stop-color:#49BDDD"/>
					<stop  offset="0.6715" style="stop-color:#45D5DF"/>
					<stop  offset="0.8493" style="stop-color:#43E3E0"/>
					<stop  offset="1" style="stop-color:#42E8E0"/>
				</linearGradient>
				<path class="st46" d="M226.79,297.07l67.34-38.88c3.5-2.02,7.81-2.02,11.32-0.01l67.44,38.85c0.53,0.31,0.8,0.84,0.8,1.38v34.08
					c0,0.54-0.27,1.07-0.8,1.38l-68,39.26c-3.09,1.78-6.9,1.78-9.99,0l-68.11-39.23c-0.53-0.31-0.8-0.84-0.8-1.38v-34.08l0,0
					C225.99,297.91,226.26,297.37,226.79,297.07z"/>
				<g class="st16">
					
						<linearGradient id="SVGID_35_" gradientUnits="userSpaceOnUse" x1="145.9899" y1="298.5308" x2="293.681" y2="298.5308" gradientTransform="matrix(-1 0 0 1 519.6742 0)">
						<stop  offset="0" style="stop-color:#5761D7"/>
						<stop  offset="0.0726" style="stop-color:#5472D8"/>
						<stop  offset="0.2791" style="stop-color:#4E9CDB"/>
						<stop  offset="0.4801" style="stop-color:#49BDDD"/>
						<stop  offset="0.6715" style="stop-color:#45D5DF"/>
						<stop  offset="0.8493" style="stop-color:#43E3E0"/>
						<stop  offset="1" style="stop-color:#42E8E0"/>
					</linearGradient>
					<path class="st47" d="M294.13,258.19c3.5-2.02,7.81-2.02,11.32-0.01l67.44,38.85c1.06,0.61,1.06,2.15,0,2.76l-68,39.26
						c-3.09,1.78-6.9,1.78-9.99,0l-68.11-39.23c-1.06-0.61-1.06-2.15,0-2.76L294.13,258.19z"/>
				</g>
				
					<linearGradient id="SVGID_36_" gradientUnits="userSpaceOnUse" x1="145.9908" y1="319.0078" x2="293.6801" y2="319.0078" gradientTransform="matrix(-1 0 0 1 519.6742 0)">
					<stop  offset="0" style="stop-color:#5761D7"/>
					<stop  offset="0.0726" style="stop-color:#5472D8"/>
					<stop  offset="0.2791" style="stop-color:#4E9CDB"/>
					<stop  offset="0.4801" style="stop-color:#49BDDD"/>
					<stop  offset="0.6715" style="stop-color:#45D5DF"/>
					<stop  offset="0.8493" style="stop-color:#43E3E0"/>
					<stop  offset="1" style="stop-color:#42E8E0"/>
				</linearGradient>
				<path class="st48" d="M226.79,298.26l68.11,39.23c3.09,1.78,6.9,1.78,9.99,0l68-39.26c0.26-0.15,0.46-0.36,0.59-0.59
					c0.41,0.72,0.21,1.7-0.59,2.16l-68,39.26c-3.09,1.78-6.9,1.78-9.99,0l-68.11-39.23c-0.8-0.46-1-1.44-0.59-2.16
					C226.33,297.9,226.53,298.11,226.79,298.26z"/>
			</g>
		</g>
		<ellipse class="st49" cx="299.84" cy="298.53" rx="37.13" ry="21.44"/>
		<g>
			<path class="st50" d="M313.97,280.35c0,0,0.9,0.94,1.84,2.05c0.94,1.11,3.57,2.65,4.68,3.34c1.11,0.69,6.17,4.53,7.23,8.31
				c1.06,3.78-2.56,4.28-6.27,3.63c-3.7-0.66-7.17-4.07-8.17-5.31s-4.51-4.03-9.06-6.39c-4.55-2.35-1.8-5.52-1.8-5.52L313.97,280.35
				z"/>
			<path class="st50" d="M280.22,291.59c0,0-0.75,1.7-0.96,3.89c-0.21,2.19-0.52,6.93-0.63,8.32c-0.11,1.39-0.16,4.78,2.28,8.03
				c2.44,3.25,3.7,4.53,6.95,3.26c3.25-1.28,3.17-6.73,2.6-9.53c-0.57-2.8-1.11-9.07-1.05-9.73c0.06-0.66-0.19-1.08-0.19-1.08
				L280.22,291.59z"/>
			<path class="st51" d="M325.17,216.09c0,0-0.68,24.98-6.51,38.24c0,0-4.17,11.68-4.72,25.57c0,0,0.96,2.39-0.4,4.34
				c-1.37,1.94-9.91,3.72-11.32-2.66c-1.41-6.39-0.87-18.34,0.68-23.32c1.55-4.98-0.55-18.72-0.55-18.72s-2.34,1.49-5.4,11.36
				c-3.06,9.87-5.32,13.63-6.37,16.36c-1.05,2.73-2.02,19.45-1.35,27.62c0,0-6.92,0.98-8.92-2.33c-2-3.31-2.67-20.42-2.16-25.88
				c0.51-5.46,2.79-22.94,2.48-28.34c-0.31-5.41-1.44-9.8-0.2-15.2c1.24-5.4,37.76-17.4,37.76-17.4L325.17,216.09z"/>
			<path class="st50" d="M280.62,238.31c-0.31-5.41-1.44-9.8-0.2-15.2c0.47-2.03,5.92-4.99,12.54-7.9
				c11.18-1.02,25.35-2.2,26.33-2.06c0.88,0.13,3.19,1.01,5.11,1.78l0.78,1.16c0,0-0.04,1.52-0.19,4c-2.61,0.78-7.62-0.03-7.62-0.03
				c-0.71,1.75-5.06,7.98-10.48,10.67s-21.27,1.77-22.18,2.79c-0.91,1.02-1.09,14.7-0.99,16.44s-1.49,12.69-2.97,22.36
				c-1.45,9.52,0.76,21.1,0.83,21.47c-0.51-0.33-0.96-0.73-1.27-1.25c-2-3.31-2.67-20.42-2.16-25.88
				C278.65,261.2,280.93,243.72,280.62,238.31z"/>
			<path class="st52" d="M312.95,134.39c0,0,8.1,1.85,10.83,2.49c0.45,0.11,0.82,0.42,0.99,0.86c0.79,1.99,2.76,8.18,1.27,17.22
				c-1.83,11.11-1.25,18.58-1.25,18.58l3.75,19.5c0,0,4.71,18.58,4.3,19.08c-0.41,0.51-10.85,8.45-14.11,7.34
				c-3.26-1.12-2.19-2.97-2.19-2.97s-2.64,13.46-14.35,13.33c-11.7-0.13-21.26-0.09-23.25-4.82c-1.99-4.73,0.54-24.61,2.61-32.49
				c2.06-7.87,6.97-23.57,6.97-23.57l-17.14-18.97l14.65-11.19c0,0,3.5-6.5,4.94-7.33c1.44-0.83,2.19-0.13,2.19-0.13L312.95,134.39z
				"/>
			<g>
				
					<linearGradient id="SVGID_37_" gradientUnits="userSpaceOnUse" x1="158.1121" y1="260.6323" x2="173.6966" y2="260.6323" gradientTransform="matrix(-0.9983 0.0579 0.0579 0.9983 475.4406 -53.735)">
					<stop  offset="0" style="stop-color:#5761D7"/>
					<stop  offset="0.0726" style="stop-color:#5472D8"/>
					<stop  offset="0.2791" style="stop-color:#4E9CDB"/>
					<stop  offset="0.4801" style="stop-color:#49BDDD"/>
					<stop  offset="0.6715" style="stop-color:#45D5DF"/>
					<stop  offset="0.8493" style="stop-color:#43E3E0"/>
					<stop  offset="1" style="stop-color:#42E8E0"/>
				</linearGradient>
				<path class="st53" d="M318.53,215.17c-0.01,0.68,0.38,1.68,2.49,2.4c2.27,0.78,7.84-2.61,11.49-5.15
					c-1.82,1.51-10.79,8.06-13.78,7.04c-0.65-0.22-1.12-0.47-1.47-0.73C317.93,217.23,318.32,215.93,318.53,215.17z"/>
				
					<linearGradient id="SVGID_38_" gradientUnits="userSpaceOnUse" x1="180.1442" y1="265.6856" x2="212.7487" y2="265.6856" gradientTransform="matrix(-0.9983 0.0579 0.0579 0.9983 475.4406 -53.735)">
					<stop  offset="0" style="stop-color:#5761D7"/>
					<stop  offset="0.0726" style="stop-color:#5472D8"/>
					<stop  offset="0.2791" style="stop-color:#4E9CDB"/>
					<stop  offset="0.4801" style="stop-color:#49BDDD"/>
					<stop  offset="0.6715" style="stop-color:#45D5DF"/>
					<stop  offset="0.8493" style="stop-color:#43E3E0"/>
					<stop  offset="1" style="stop-color:#42E8E0"/>
				</linearGradient>
				<path class="st54" d="M279.03,223.43c2.1,4.99,12.18,4.95,24.53,5.09c3.14,0.03,5.66-0.86,7.68-2.21
					c-2.14,2.04-5.07,3.57-9.05,3.52c-11.7-0.13-21.26-0.09-23.25-4.82c-0.65-1.55-0.82-4.74-0.67-8.6
					C278.24,219.54,278.46,222.07,279.03,223.43z"/>
			</g>
			<path class="st55" d="M291.28,131.3c0,0-2.99,3.62,1.31,8.51c2.65,3.01,7.21,9.49,11.09,16.23c2.43,4.21,4.67,6.45,5.94,10.07
				c0,0,0.18-4.29,0.35-10.93c0.16-6.26,0.25-12.76-0.03-14.4C309.37,137.41,294.59,129.66,291.28,131.3z"/>
			<path class="st56" d="M302.47,142.19c0,0,1.53,0.95,2.06,0.87c0.53-0.08,2.23-1.73,2.23-1.73s4.25-0.08,4.71-1.9
				c0.46-1.82,0.77-3.65,1.2-4.6c0.43-0.95,2.26-5.49,2.28-7.33c0.01-1.84-0.06-5.13,0.74-6.88c0.8-1.74,1.87-19.18-14.97-18.68
				s-11.61,17.97-11.61,17.97s-1.23,0.52-0.49,2.77c0.74,2.25,0.91,2.48,1.29,3.6c0.38,1.12,0.57,1.83,1.64,2.74l0.28,2.07
				c0,0-0.8,3.17,1.29,6.24C295.22,140.43,302.47,142.19,302.47,142.19z"/>
			<path class="st51" d="M324.24,137.08c0,0,1.79,0.27,7.62,14.92c3.25,8.18,8.27,16.64,9.33,22.72c1.06,6.08,0.47,12.57-0.73,13.03
				c-1.16,0.44-22.08,8.27-28.63,10.74c-0.36,0.14-0.76-0.09-0.82-0.47l-1.81-10.11l12.99-5.02c0,0,2.47-3.02,4.8-4.16
				c0,0-2.6-4.8-2.44-6.11c0.17-1.31-0.23-14.86,1.29-20.38C327.35,146.74,324.24,137.08,324.24,137.08z"/>
			<path class="st56" d="M316.63,175.8c0,0,1.79-1.2,2.23-1.37c0.44-0.17,2.83-0.99,3.29-1.19c0.34-0.15,1.73-0.04,2.43,0.03
				c0.25,0.03,0.47,0.17,0.59,0.4c0.55,1.03,2.09,4.01,1.92,5.15c0,0-4.32,2.73-4.81,3.95l-0.69,0.15
				C321.6,182.91,318.7,176.7,316.63,175.8z"/>
			<path class="st51" d="M281.55,192.52c0.5-1.89,1.16-4.24,1.88-6.71l26.3,11.27c0,0-7.87,9.68-21.67,9.06
				c-3.77-0.17-6.52-1.53-8.55-2.7C280.12,199.13,280.86,195.15,281.55,192.52z"/>
			<path class="st51" d="M271.38,149.98c0,0,6.94,0.95,12.54,9.84c5.6,8.88,9.69,19.16,9.69,19.16l0.19,1.16
				c0.5,3.02,3.72,4.75,6.52,3.5c5.92-2.64,14.68-6.64,16.31-7.84c0,0,5.24,2.9,6.67,9.74c1.14,5.46,0.85,5.47,0.85,5.47
				s-23.35,10.9-32.37,10.79c-9.02-0.11-20.46-29.76-21.72-35.89C268.8,159.79,267.41,151.71,271.38,149.98z"/>
			<path class="st57" d="M271.38,149.98c0,0,6.94,0.95,12.54,9.84c5.6,8.88,9.69,19.16,9.69,19.16l0.19,1.16
				c0.5,3.02,3.72,4.75,6.52,3.5c5.92-2.64,14.68-6.64,16.31-7.84c0,0,5.24,2.9,6.67,9.74c1.14,5.46,0.85,5.47,0.85,5.47
				s-23.35,10.9-32.37,10.79c-9.02-0.11-20.46-29.76-21.72-35.89C268.8,159.79,267.41,151.71,271.38,149.98z"/>
			<path class="st52" d="M296.96,185.02c0,0-2.95,2.75-4.23,1.25c-1.28-1.51-0.9-1.68-0.9-1.68s-2.65-0.02-2.97-1.68
				c-0.32-1.66-1.63-0.78-1.7-2.63c-0.08-1.85,2.15-1.47,2.15-1.47L296.96,185.02z"/>
			<path class="st56" d="M300.52,183.54c0,0-0.81-0.75-1.85-1.64c-1.04-0.88-2.73-4.54-3.02-4.86c-0.29-0.32-3.81-3.03-5.51-3.07
				c-1.7-0.05-0.44,1.85-0.05,2.12c0.39,0.27,2.05,1.09,2.05,1.09s1.71,1.43,1.9,1.64c0.19,0.21-4.74-0.34-5.53,0.14
				c-0.78,0.48-0.6,1.74-0.05,2.09c0.55,0.34,0.98,0.33,0.98,0.33s-0.56,1.49,0.93,2.18c1.48,0.69,1.82,0.31,1.82,0.31
				s0.13,2.57,2.57,2.06L300.52,183.54z"/>
			<path class="st58" d="M316.07,111.73c0,0,2.2,7-3.59,5.01c-5.78-1.99-11.02-5.32-12.83-4.05c-1.38,0.97-1.32,3.93-1.21,5.28
				c0.04,0.46-0.08,0.92-0.35,1.3l-1.71,2.49c-0.19,0.28-0.31,0.61-0.33,0.95l-0.12,1.73c-0.03,0.44-0.38,0.78-0.82,0.81l-0.39,0.02
				c-0.44,0.03-0.83-0.28-0.91-0.72l-0.45-2.55c0,0-1.36-3.43-4.24-2.08c0,0-1.92-2.59-1.29-8.11c0.64-5.53,3.12-11.28,13.97-12.2
				C312.65,98.7,316.07,111.73,316.07,111.73z"/>
			<path class="st59" d="M299.49,148.35l1.62-1.26c0,0,1.5,1.25,2.09,2.57c0.59,1.32,0,5.53,0,5.53l0.49,0.85l0.61-1.11l0.51-4.97
				c0,0-0.55-3.67-0.61-3.77c-0.05-0.09-3.13,0.33-3.13,0.33S300.01,147.33,299.49,148.35z"/>
			<path class="st59" d="M307.29,143.4c0,0,1.74,0.12,2.52,0.76c0,0-1.82,0.09-2.11,0.12C307.41,144.32,307.29,143.4,307.29,143.4z"
				/>
			<path class="st51" d="M303.99,143.79l-2.91,2.72c0,0,2.56,1.18,3.27,3.46c0,0,3.17,0.59,3.46-0.56c0.29-1.15-0.01-4.04,0.37-5.32
				C308.55,142.82,303.99,143.79,303.99,143.79z"/>
			<path class="st51" d="M307.68,149.35c0,0,0.54,2.38,1.13,3.37c0.59,0.98,1.2,2.09,1.2,2.09l-0.07,13.97
				c0,0-5.14-10.59-6.25-12.73c0,0,0.17-5.1,0.66-6.07C304.83,149.01,307.68,149.35,307.68,149.35z"/>
			<path class="st60" d="M293.89,128.71c3.38,9.74,12.87,12.63,12.87,12.63s-1.7,1.65-2.23,1.73c-0.53,0.08-2.06-0.87-2.06-0.87
				s-7.25-1.76-9.34-4.84c-2.09-3.08-1.29-6.24-1.29-6.24l-0.28-2.07C293.06,129.54,293.89,128.71,293.89,128.71z"/>
			<path class="st51" d="M286.17,140.11c0,0,1.33,4.6,1.5,4.77c0.17,0.17,3.35-0.19,3.35-0.19l-1.54,2.92
				c0,0,15.98,17.14,19.3,26.36c0,0-7.56-11.69-20.87-25.64l1.88-2.85l-3.27,0.64L286.17,140.11z"/>
			<path class="st51" d="M312.42,136.05l0.85,0.97l-1,0.93l2.96,2.67c0,0,0.9,18.75-2.71,31.17c0,0,4.9-11.39,3.79-31.68l-3.2-2.17
				l1.05-1.03L312.42,136.05z"/>
			<path class="st50" d="M302.35,239.53c0,0-0.04,0.02-0.11,0.09l4.14-4.41c-1.91,2.7,0.29,15.04,0.52,17.86
				c0.23,2.83-2.21,8.66-3.12,15.5c-0.91,6.83,0.96,16.57,0.96,16.6c-1.18-0.69-2.13-1.83-2.52-3.6
				c-1.41-6.39-0.87-18.34,0.68-23.32C304.45,253.26,302.35,239.53,302.35,239.53z"/>
			
				<linearGradient id="SVGID_39_" gradientUnits="userSpaceOnUse" x1="165.1614" y1="224.346" x2="218.1896" y2="224.346" gradientTransform="matrix(-0.9983 0.0579 0.0579 0.9983 475.4406 -53.735)">
				<stop  offset="0" style="stop-color:#5761D7"/>
				<stop  offset="0.0726" style="stop-color:#5472D8"/>
				<stop  offset="0.2791" style="stop-color:#4E9CDB"/>
				<stop  offset="0.4801" style="stop-color:#49BDDD"/>
				<stop  offset="0.6715" style="stop-color:#45D5DF"/>
				<stop  offset="0.8493" style="stop-color:#43E3E0"/>
				<stop  offset="1" style="stop-color:#42E8E0"/>
			</linearGradient>
			<path class="st61" d="M291.78,201.81c-9.02-0.11-20.46-29.76-21.72-35.89c-0.21-1.02-0.42-2.1-0.61-3.19
				c0.03,0.09,2.37,6.49,4.62,12.17c2.27,5.72,14.32,23.04,20.48,24.17c5.55,1.02,25.53-8.31,29.4-10.15c0.35,2.08,0.2,2.1,0.2,2.1
				S300.8,201.92,291.78,201.81z"/>
			<path class="st62" d="M294.71,125.27c-0.44,0.03-0.83-0.28-0.91-0.72l-0.45-2.55c0,0-1.36-3.43-4.24-2.08
				c0,0-1.81-2.46-1.32-7.68c3.2,4.8,10.3,7.02,10.3,7.02l-1.71,2.49c-0.19,0.28-0.31,0.61-0.33,0.95l-0.12,1.73
				c-0.03,0.44-0.38,0.78-0.82,0.81L294.71,125.27z"/>
		</g>
	</g>
	<g>
		<path class="st33" d="M189.1,267.06l0-9.53c1.91,1.02,3.86,2.02,5.85,2.99v9.53C192.96,269.08,191.01,268.08,189.1,267.06
			L189.1,267.06z M170.35,255.15V237.6c1.59,1.19,3.22,2.37,4.9,3.52v17.55C173.56,257.52,171.93,256.35,170.35,255.15
			L170.35,255.15z M179.29,261.33l0-20.7c1.75,1.11,3.55,2.2,5.39,3.26v20.7C182.84,263.53,181.04,262.44,179.29,261.33
			L179.29,261.33z M155.3,241.56v-22.97c1.22,1.34,2.49,2.66,3.81,3.96v22.97C157.79,244.22,156.51,242.9,155.3,241.56L155.3,241.56
			z M162.33,248.55v-24.89c1.41,1.27,2.87,2.52,4.37,3.75v24.89C165.2,251.07,163.74,249.82,162.33,248.55L162.33,248.55z
			 M144.4,226.54v-26.98c0.81,1.46,1.68,2.91,2.61,4.34v26.98C146.08,229.44,145.21,228,144.4,226.54L144.4,226.54z M149.3,234.21
			v-35.1c1.02,1.4,2.1,2.79,3.23,4.16v35.1C151.4,237,150.32,235.61,149.3,234.21L149.3,234.21z M140.66,218.58v-39.64
			c0.59,1.51,1.24,3.01,1.95,4.49v39.64C141.9,221.59,141.25,220.09,140.66,218.58L140.66,218.58z M206.99,227.37
			c-37.72-15.19-63.77-39.2-69.23-66.7v56.38c5.46,27.5,31.52,51.5,69.23,66.7V227.37L206.99,227.37z"/>
		<path class="st33" d="M317.58,290v-12.72c6.49-0.35,12.87-0.92,19.12-1.7v12.72C330.45,289.07,324.07,289.64,317.58,290
			L317.58,290z M287.08,290.05v-23.18c3.89,0.2,7.82,0.32,11.78,0.36c2.71,0.03,5.4,0.02,8.08-0.03v23.18
			c-2.68,0.05-5.37,0.06-8.08,0.03C294.9,290.37,290.97,290.25,287.08,290.05L287.08,290.05z M257.69,287.01v-35.43
			c6.15,0.97,12.44,1.75,18.86,2.31v35.43C270.13,288.76,263.83,287.99,257.69,287.01L257.69,287.01z M346.75,286.86v-37.42
			c6.1-0.99,12.06-2.18,17.86-3.55v37.42C358.81,284.69,352.85,285.87,346.75,286.86L346.75,286.86z M379.65,233.32
			c-24.03,7.39-51.59,11.47-80.79,11.18c-20.35-0.2-39.78-2.51-57.66-6.56v56.38c17.88,4.05,37.31,6.35,57.66,6.56
			c29.2,0.29,56.76-3.78,80.79-11.18V233.32L379.65,233.32z"/>
		<path class="st33" d="M420.15,249.45v-10.92c26.31-15.53,43.43-36.25,46.23-59.29v10.92C463.58,213.2,446.46,233.91,420.15,249.45
			L420.15,249.45z M466.76,207.88V151.5c-0.84,27.57-22.15,52.19-55.48,69.16v56.38C444.61,260.07,465.92,235.45,466.76,207.88
			L466.76,207.88z"/>
		<path class="st34" d="M466.38,179.24c-2.8,23.04-19.93,43.75-46.23,59.29v10.92c26.31-15.53,43.43-36.25,46.23-59.29V179.24
			L466.38,179.24z"/>
		<path class="st24" d="M276.55,253.89c-6.42-0.56-12.71-1.34-18.86-2.31v35.43c6.15,0.97,12.44,1.75,18.86,2.31V253.89
			L276.55,253.89z"/>
		<path class="st24" d="M336.7,275.58c-6.25,0.77-12.63,1.34-19.12,1.7V290c6.49-0.35,12.87-0.92,19.12-1.7V275.58L336.7,275.58z"/>
		<path class="st24" d="M364.61,245.89c-5.8,1.37-11.76,2.56-17.86,3.55v37.42c6.1-0.99,12.06-2.18,17.86-3.55V245.89L364.61,245.89
			z"/>
		<path class="st34" d="M306.94,267.2c-2.68,0.05-5.37,0.06-8.08,0.03c-3.96-0.04-7.89-0.16-11.78-0.36v23.18
			c3.89,0.2,7.82,0.32,11.78,0.36c2.71,0.03,5.4,0.02,8.08-0.03V267.2L306.94,267.2z"/>
		<path class="st24" d="M142.61,183.43c-0.71-1.48-1.37-2.98-1.95-4.49v39.64c0.59,1.51,1.24,3.01,1.95,4.49V183.43L142.61,183.43z"
			/>
		<path class="st24" d="M147.01,203.89c-0.93-1.43-1.8-2.88-2.61-4.34v26.98c0.81,1.46,1.68,2.91,2.61,4.34V203.89L147.01,203.89z"
			/>
		<path class="st34" d="M152.53,203.27c-1.13-1.37-2.21-2.76-3.23-4.16v35.1c1.02,1.4,2.1,2.79,3.23,4.16V203.27L152.53,203.27z"/>
		<path class="st24" d="M159.11,222.55c-1.32-1.3-2.6-2.62-3.81-3.96v22.97c1.22,1.34,2.49,2.66,3.81,3.96V222.55L159.11,222.55z"/>
		<path class="st34" d="M166.7,227.42c-1.51-1.23-2.97-2.48-4.37-3.75v24.89c1.41,1.27,2.87,2.52,4.37,3.75V227.42L166.7,227.42z"/>
		<path class="st34" d="M175.25,241.12c-1.68-1.15-3.31-2.32-4.9-3.52v17.55c1.59,1.19,3.22,2.37,4.9,3.52V241.12L175.25,241.12z"/>
		<path class="st34" d="M184.68,243.89c-1.84-1.06-3.64-2.15-5.39-3.26l0,20.7c1.75,1.11,3.55,2.2,5.39,3.26V243.89L184.68,243.89z"
			/>
		<path class="st34" d="M194.96,260.52c-1.99-0.97-3.94-1.97-5.85-2.99l0,9.53c1.91,1.02,3.86,2.02,5.85,2.99V260.52L194.96,260.52z
			"/>
	</g>
</g>
</svg>
